<?xml version="1.0" encoding="UTF-8" standalone="no"?>
<svg
   xmlns:dc="http://purl.org/dc/elements/1.1/"
   xmlns:cc="http://creativecommons.org/ns#"
   xmlns:rdf="http://www.w3.org/1999/02/22-rdf-syntax-ns#"
   xmlns:svg="http://www.w3.org/2000/svg"
   xmlns="http://www.w3.org/2000/svg"
   xmlns:sodipodi="http://sodipodi.sourceforge.net/DTD/sodipodi-0.dtd"
   xmlns:inkscape="http://www.inkscape.org/namespaces/inkscape"
   version="1.1"
   id="svg2"
   xml:space="preserve"
   width="213.75999"
   height="94.040001"
   viewBox="0 0 213.75999 94.040001"
   sodipodi:docname="nistident_flright_vec.eps"><metadata
     id="metadata8"><rdf:RDF><cc:Work
         rdf:about=""><dc:format>image/svg+xml</dc:format><dc:type
           rdf:resource="http://purl.org/dc/dcmitype/StillImage" /></cc:Work></rdf:RDF></metadata><defs
     id="defs6" /><sodipodi:namedview
     pagecolor="#ffffff"
     bordercolor="#666666"
     borderopacity="1"
     objecttolerance="10"
     gridtolerance="10"
     guidetolerance="10"
     inkscape:pageopacity="0"
     inkscape:pageshadow="2"
     inkscape:window-width="640"
     inkscape:window-height="480"
     id="namedview4" /><g
     id="g10"
     inkscape:groupmode="layer"
     inkscape:label="ink_ext_XXXXXX"
     transform="matrix(1.3333333,0,0,-1.3333333,0,94.04)"><g
       id="g12"
       transform="scale(0.1)"><path
         d="m 402.223,399.488 h 22.586 l 41.375,-53.14 h 0.226 v 53.14 H 489 v -86.91 h -22.59 l -41.367,53.25 h -0.234 v -53.25 h -22.586 v 86.91"
         style="fill:#231f20;fill-opacity:1;fill-rule:nonzero;stroke:none"
         id="path14" /><path
         d="m 520.699,342.09 c 0,-7.5 4.953,-13.25 13.489,-13.25 8.527,0 13.48,5.75 13.48,13.25 0,7.246 -4.953,13.371 -13.48,13.371 -8.536,0 -13.489,-6.125 -13.489,-13.371 z m 47.254,-29.512 H 546.98 v 6.57 h -0.234 c -3.695,-5.867 -10.941,-8.523 -17.863,-8.523 -17.512,0 -29.856,14.641 -29.856,31.582 0,16.934 12.11,31.461 29.621,31.461 6.801,0 13.954,-2.547 18.332,-7.73 v 5.761 h 20.973 v -59.121"
         style="fill:#231f20;fill-opacity:1;fill-rule:nonzero;stroke:none"
         id="path16" /><path
         d="m 604.824,312.578 h -20.972 v 41.836 h -6.801 v 17.285 h 6.801 v 17.758 h 20.972 v -17.758 h 11.875 v -17.285 h -11.875 v -41.836"
         style="fill:#231f20;fill-opacity:1;fill-rule:nonzero;stroke:none"
         id="path18" /><path
         d="m 644.359,312.578 h -20.968 v 59.121 h 20.968 z m 1.262,81.832 c 0,-6.461 -5.293,-11.754 -11.754,-11.754 -6.457,0 -11.75,5.293 -11.75,11.754 0,6.453 5.293,11.75 11.75,11.75 6.461,0 11.754,-5.297 11.754,-11.75"
         style="fill:#231f20;fill-opacity:1;fill-rule:nonzero;stroke:none"
         id="path20" /><path
         d="m 675.938,342.09 c 0,-7.5 4.953,-13.25 13.476,-13.25 8.535,0 13.492,5.75 13.492,13.25 0,7.246 -4.957,13.371 -13.492,13.371 -8.523,0 -13.476,-6.125 -13.476,-13.371 z m 49.085,0 c 0,-20.059 -16.593,-31.465 -35.609,-31.465 -18.891,0 -35.613,11.289 -35.613,31.465 0,20.172 16.609,31.578 35.613,31.578 19.016,0 35.609,-11.406 35.609,-31.578"
         style="fill:#231f20;fill-opacity:1;fill-rule:nonzero;stroke:none"
         id="path22" /><path
         d="m 755.449,364.105 h 0.235 c 4.843,7.141 10.726,9.563 18.906,9.563 15.898,0 22.246,-10.023 22.246,-24.559 v -36.531 h -20.984 v 28.82 c 0,5.653 0.929,15.551 -9.442,15.551 -8.539,0 -10.961,-6.336 -10.961,-13.707 v -30.664 h -20.972 v 59.121 h 20.972 v -7.594"
         style="fill:#231f20;fill-opacity:1;fill-rule:nonzero;stroke:none"
         id="path24" /><path
         d="m 828.059,342.09 c 0,-7.5 4.964,-13.25 13.496,-13.25 8.511,0 13.472,5.75 13.472,13.25 0,7.246 -4.961,13.371 -13.472,13.371 -8.532,0 -13.496,-6.125 -13.496,-13.371 z m 47.254,-29.512 h -20.977 v 6.57 h -0.227 c -3.687,-5.867 -10.957,-8.523 -17.847,-8.523 -17.535,0 -29.86,14.641 -29.86,31.582 0,16.934 12.09,31.461 29.621,31.461 6.797,0 13.938,-2.547 18.313,-7.73 v 5.761 h 20.977 v -59.121"
         style="fill:#231f20;fill-opacity:1;fill-rule:nonzero;stroke:none"
         id="path26" /><path
         d="m 910.242,312.578 h -20.996 v 95.664 h 20.996 v -95.664"
         style="fill:#231f20;fill-opacity:1;fill-rule:nonzero;stroke:none"
         id="path28" /><path
         d="m 986.648,312.578 h -22.605 v 86.91 h 22.605 v -86.91"
         style="fill:#231f20;fill-opacity:1;fill-rule:nonzero;stroke:none"
         id="path30" /><path
         d="m 1021.9,364.105 h 0.24 c 4.84,7.141 10.7,9.563 18.9,9.563 15.9,0 22.23,-10.023 22.23,-24.559 v -36.531 h -20.98 v 28.82 c 0,5.653 0.94,15.551 -9.45,15.551 -8.51,0 -10.94,-6.336 -10.94,-13.707 v -30.664 h -20.97 v 59.121 h 20.97 v -7.594"
         style="fill:#231f20;fill-opacity:1;fill-rule:nonzero;stroke:none"
         id="path32" /><path
         d="m 1116.18,356.504 c -3.24,1.719 -7.71,2.867 -11.31,2.867 -2.4,0 -6.56,-1.043 -6.56,-4.039 0,-4.031 6.56,-4.609 9.45,-5.176 9.81,-1.965 17.17,-6.57 17.17,-17.519 0,-15.547 -14.18,-22.012 -27.87,-22.012 -8.42,0 -16.72,2.422 -23.87,6.797 l 7.6,14.648 c 4.28,-3.007 11.43,-5.996 16.6,-5.996 2.66,0 6.57,1.25 6.57,4.492 0,4.61 -6.57,4.832 -13.13,6.563 -6.56,1.738 -13.14,4.961 -13.14,15.566 0,14.516 13.14,20.973 26.03,20.973 6.7,0 13.38,-1.039 19.49,-3.805 l -7.03,-13.359"
         style="fill:#231f20;fill-opacity:1;fill-rule:nonzero;stroke:none"
         id="path34" /><path
         d="m 1159.17,312.578 h -20.98 v 41.836 h -6.79 v 17.285 h 6.79 v 17.758 h 20.98 v -17.758 h 11.87 v -17.285 h -11.87 v -41.836"
         style="fill:#231f20;fill-opacity:1;fill-rule:nonzero;stroke:none"
         id="path36" /><path
         d="m 1198.68,312.578 h -20.97 v 59.121 h 20.97 z m 1.27,81.832 c 0,-6.461 -5.29,-11.754 -11.74,-11.754 -6.46,0 -11.75,5.293 -11.75,11.754 0,6.453 5.29,11.75 11.75,11.75 6.45,0 11.74,-5.297 11.74,-11.75"
         style="fill:#231f20;fill-opacity:1;fill-rule:nonzero;stroke:none"
         id="path38" /><path
         d="m 1235.44,312.578 h -20.96 v 41.836 h -6.81 v 17.285 h 6.81 v 17.758 h 20.96 v -17.758 h 11.87 v -17.285 h -11.87 v -41.836"
         style="fill:#231f20;fill-opacity:1;fill-rule:nonzero;stroke:none"
         id="path40" /><path
         d="m 1274.64,371.699 v -31.582 c 0,-7.48 1.83,-12.793 10.49,-12.793 8.65,0 10.49,5.313 10.49,12.793 v 31.582 h 20.97 v -35.613 c 0,-19.465 -13.73,-25.461 -31.46,-25.461 -17.76,0 -31.47,5.996 -31.47,25.461 v 35.613 h 20.98"
         style="fill:#231f20;fill-opacity:1;fill-rule:nonzero;stroke:none"
         id="path42" /><path
         d="m 1352.88,312.578 h -20.98 v 41.836 h -6.79 v 17.285 h 6.79 v 17.758 h 20.98 v -17.758 h 11.88 v -17.285 h -11.88 v -41.836"
         style="fill:#231f20;fill-opacity:1;fill-rule:nonzero;stroke:none"
         id="path44" /><path
         d="m 1412.71,350.723 c -1.04,5.656 -6.24,9.343 -11.88,9.343 -6.11,0 -11.17,-3.226 -12.44,-9.343 z m 19.47,-12.09 h -44.14 c 0,-8.535 4.49,-13.145 13.14,-13.145 4.49,0 7.72,1.504 10.02,5.41 h 20.18 c -3.34,-13.945 -16.6,-20.273 -30.1,-20.273 -19.59,0 -34.22,11.055 -34.22,31.465 0,19.703 13.5,31.578 32.73,31.578 20.51,0 32.39,-12.684 32.39,-32.848 v -2.187"
         style="fill:#231f20;fill-opacity:1;fill-rule:nonzero;stroke:none"
         id="path46" /><path
         d="m 1499.03,342.09 c 0,-7.5 4.94,-13.25 13.48,-13.25 8.53,0 13.48,5.75 13.48,13.25 0,7.246 -4.95,13.371 -13.48,13.371 -8.54,0 -13.48,-6.125 -13.48,-13.371 z m 49.09,0 c 0,-20.059 -16.61,-31.465 -35.61,-31.465 -18.91,0 -35.63,11.289 -35.63,31.465 0,20.172 16.61,31.578 35.63,31.578 19,0 35.61,-11.406 35.61,-31.578"
         style="fill:#231f20;fill-opacity:1;fill-rule:nonzero;stroke:none"
         id="path48" /><path
         d="m 1580.62,312.578 h -20.98 v 41.836 h -7.36 v 17.285 h 7.36 v 7.496 c 0,8.184 0.23,14.172 5.99,20.743 5.2,6.113 12.68,9.453 20.65,9.453 3.2,0 6.09,-0.578 8.98,-2.082 v -18.086 c -2.42,1.043 -4.61,1.961 -7.38,1.961 -5.41,0 -7.26,-3.235 -7.26,-9.911 v -9.574 h 14.64 v -17.285 h -14.64 v -41.836"
         style="fill:#231f20;fill-opacity:1;fill-rule:nonzero;stroke:none"
         id="path50" /><path
         d="m 51.6328,238.027 c -4.1484,3.457 -9.4414,5.762 -14.9805,5.762 -4.1484,0 -9.6718,-2.422 -9.6718,-7.266 0,-5.058 6.1015,-7.031 10.0273,-8.3 l 5.7617,-1.719 c 12.0938,-3.574 21.4414,-9.688 21.4414,-23.731 0,-8.652 -2.0859,-17.539 -8.9921,-23.398 -6.8008,-5.781 -15.9141,-8.184 -24.668,-8.184 -10.9453,0 -21.66799,3.672 -30.5508,9.903 l 9.6875,18.203 c 5.6484,-4.942 12.3242,-8.984 20.0586,-8.984 5.293,0 10.9414,2.656 10.9414,8.769 0,6.328 -8.8828,8.535 -13.707,9.902 -14.1719,4.024 -23.51956,7.715 -23.51956,24.551 0,17.637 12.55856,29.16 29.96096,29.16 8.7695,0 19.4844,-2.773 27.1992,-7.148 l -8.9883,-17.52"
         style="fill:#231f20;fill-opacity:1;fill-rule:nonzero;stroke:none"
         id="path52" /><path
         d="M 97.3984,173.496 H 76.4258 v 41.836 H 69.625 v 17.266 h 6.8008 v 17.761 H 97.3984 V 232.598 H 109.258 V 215.332 H 97.3984 v -41.836"
         style="fill:#231f20;fill-opacity:1;fill-rule:nonzero;stroke:none"
         id="path54" /><path
         d="m 133.352,203.008 c 0,-7.5 4.949,-13.262 13.472,-13.262 8.535,0 13.489,5.762 13.489,13.262 0,7.246 -4.954,13.359 -13.489,13.359 -8.523,0 -13.472,-6.113 -13.472,-13.359 z m 47.253,-29.512 h -20.972 v 6.563 h -0.235 c -3.695,-5.879 -10.96,-8.516 -17.871,-8.516 -17.507,0 -29.847,14.629 -29.847,31.562 0,16.934 12.109,31.465 29.621,31.465 6.797,0 13.937,-2.539 18.332,-7.734 v 5.762 h 20.972 v -59.102"
         style="fill:#231f20;fill-opacity:1;fill-rule:nonzero;stroke:none"
         id="path56" /><path
         d="m 215.52,225.02 h 0.234 c 4.844,7.128 10.707,9.55 18.902,9.55 15.903,0 22.235,-10.019 22.235,-24.55 v -36.524 h -20.977 v 28.809 c 0,5.644 0.934,15.547 -9.453,15.547 -8.523,0 -10.941,-6.329 -10.941,-13.711 v -30.645 h -20.973 v 59.102 h 20.973 v -7.578"
         style="fill:#231f20;fill-opacity:1;fill-rule:nonzero;stroke:none"
         id="path58" /><path
         d="m 288.93,203.008 c 0,-7.5 4.953,-13.262 13.492,-13.262 8.519,0 13.473,5.762 13.473,13.262 0,7.246 -4.954,13.359 -13.473,13.359 -8.539,0 -13.492,-6.113 -13.492,-13.359 z m 26.281,-22.949 h -0.231 c -3.695,-5.879 -10.949,-8.516 -17.871,-8.516 -17.507,0 -29.851,14.629 -29.851,31.562 0,16.934 12.105,31.465 29.621,31.465 6.797,0 13.957,-2.539 18.332,-7.734 v 42.305 h 20.973 v -95.645 h -20.973 v 6.563"
         style="fill:#231f20;fill-opacity:1;fill-rule:nonzero;stroke:none"
         id="path60" /><path
         d="m 366.719,203.008 c 0,-7.5 4.965,-13.262 13.492,-13.262 8.519,0 13.473,5.762 13.473,13.262 0,7.246 -4.954,13.359 -13.473,13.359 -8.527,0 -13.492,-6.113 -13.492,-13.359 z m 47.258,-29.512 h -20.973 v 6.563 h -0.234 c -3.684,-5.879 -10.946,-8.516 -17.868,-8.516 -17.515,0 -29.839,14.629 -29.839,31.562 0,16.934 12.093,31.465 29.621,31.465 6.8,0 13.937,-2.539 18.32,-7.734 v 5.762 h 20.973 v -59.102"
         style="fill:#231f20;fill-opacity:1;fill-rule:nonzero;stroke:none"
         id="path62" /><path
         d="m 448.902,222.93 h 0.219 c 4.031,7.265 10.957,10.488 19.141,10.488 h 4.035 v -20.176 c -2.887,1.621 -5.652,1.953 -8.879,1.953 -11.645,0 -14.516,-7.715 -14.516,-17.851 v -23.848 h -20.988 v 59.102 h 20.988 v -9.668"
         style="fill:#231f20;fill-opacity:1;fill-rule:nonzero;stroke:none"
         id="path64" /><path
         d="m 498.328,203.008 c 0,-7.5 4.969,-13.262 13.492,-13.262 8.524,0 13.493,5.762 13.493,13.262 0,7.246 -4.969,13.359 -13.493,13.359 -8.523,0 -13.492,-6.113 -13.492,-13.359 z m 26.285,-22.949 h -0.234 c -3.68,-5.879 -10.945,-8.516 -17.871,-8.516 -17.508,0 -29.832,14.629 -29.832,31.562 0,16.934 12.094,31.465 29.617,31.465 6.797,0 13.941,-2.539 18.32,-7.734 v 42.305 h 20.973 v -95.645 h -20.973 v 6.563"
         style="fill:#231f20;fill-opacity:1;fill-rule:nonzero;stroke:none"
         id="path66" /><path
         d="m 597.793,217.402 c -3.23,1.719 -7.715,2.871 -11.289,2.871 -2.422,0 -6.582,-1.035 -6.582,-4.023 0,-4.043 6.582,-4.609 9.453,-5.195 9.801,-1.953 17.172,-6.563 17.172,-17.5 0,-15.567 -14.176,-22.012 -27.879,-22.012 -8.414,0 -16.719,2.402 -23.863,6.797 l 7.605,14.629 c 4.27,-2.989 11.414,-5.996 16.598,-5.996 2.652,0 6.566,1.269 6.566,4.492 0,4.609 -6.566,4.844 -13.133,6.562 -6.566,1.739 -13.132,4.981 -13.132,15.567 0,14.531 13.132,20.976 26.035,20.976 6.687,0 13.379,-1.035 19.48,-3.789 l -7.031,-13.379"
         style="fill:#231f20;fill-opacity:1;fill-rule:nonzero;stroke:none"
         id="path68" /><path
         d="m 674.773,203.008 c 0,-7.5 4.954,-13.262 13.489,-13.262 8.523,0 13.476,5.762 13.476,13.262 0,7.246 -4.953,13.359 -13.476,13.359 -8.535,0 -13.489,-6.113 -13.489,-13.359 z m 47.254,-29.512 h -20.972 v 6.563 h -0.235 c -3.691,-5.879 -10.941,-8.516 -17.867,-8.516 -17.508,0 -29.851,14.629 -29.851,31.562 0,16.934 12.109,31.465 29.617,31.465 6.801,0 13.961,-2.539 18.336,-7.734 v 5.762 h 20.972 v -59.102"
         style="fill:#231f20;fill-opacity:1;fill-rule:nonzero;stroke:none"
         id="path70" /><path
         d="m 756.941,225.02 h 0.231 c 4.844,7.128 10.726,9.55 18.914,9.55 15.891,0 22.242,-10.019 22.242,-24.55 V 173.496 H 777.34 v 28.809 c 0,5.644 0.93,15.547 -9.442,15.547 -8.535,0 -10.957,-6.329 -10.957,-13.711 v -30.645 h -20.972 v 59.102 h 20.972 v -7.578"
         style="fill:#231f20;fill-opacity:1;fill-rule:nonzero;stroke:none"
         id="path72" /><path
         d="m 830.352,203.008 c 0,-7.5 4.968,-13.262 13.488,-13.262 8.531,0 13.496,5.762 13.496,13.262 0,7.246 -4.965,13.359 -13.496,13.359 -8.52,0 -13.488,-6.113 -13.488,-13.359 z m 26.281,-22.949 h -0.238 c -3.668,-5.879 -10.934,-8.516 -17.848,-8.516 -17.524,0 -29.852,14.629 -29.852,31.562 0,16.934 12.098,31.465 29.618,31.465 6.804,0 13.945,-2.539 18.32,-7.734 v 42.305 h 20.972 v -95.645 h -20.972 v 6.563"
         style="fill:#231f20;fill-opacity:1;fill-rule:nonzero;stroke:none"
         id="path74" /><path
         d="m 965.32,173.496 h -22.593 v 67.754 h -18.672 v 19.141 h 59.922 V 241.25 H 965.32 v -67.754"
         style="fill:#231f20;fill-opacity:1;fill-rule:nonzero;stroke:none"
         id="path76" /><path
         d="m 1024.43,211.641 c -1.04,5.644 -6.22,9.336 -11.86,9.336 -6.11,0 -11.19,-3.223 -12.44,-9.336 z m 19.49,-12.11 h -44.147 c 0,-8.535 4.497,-13.144 13.147,-13.144 4.47,0 7.71,1.504 10.02,5.429 h 20.17 c -3.33,-13.945 -16.6,-20.273 -30.09,-20.273 -19.59,0 -34.219,11.035 -34.219,31.465 0,19.687 13.472,31.562 32.729,31.562 20.51,0 32.39,-12.675 32.39,-32.851 v -2.188"
         style="fill:#231f20;fill-opacity:1;fill-rule:nonzero;stroke:none"
         id="path78" /><path
         d="m 1096.12,213.379 c -3.12,2.285 -6.79,4.141 -10.84,4.141 -8.06,0 -14.4,-6.231 -14.4,-14.415 0,-8.515 6.1,-14.511 14.75,-14.511 3.7,0 7.72,1.484 10.49,4.023 v -17.754 c -4.61,-2.285 -9.68,-3.32 -14.74,-3.32 -17.53,0 -32.17,13.008 -32.17,30.859 0,19.024 14.53,32.168 33.08,32.168 4.85,0 9.69,-1.152 13.83,-3.457 v -17.734"
         style="fill:#231f20;fill-opacity:1;fill-rule:nonzero;stroke:none"
         id="path80" /><path
         d="m 1130.13,269.141 v -44.024 h 0.21 c 4.85,6.465 10.72,9.453 18.91,9.453 14.98,0 22.24,-9.922 22.24,-24.902 v -36.172 h -20.97 v 30.293 c 0,6.934 -1.04,14.063 -9.46,14.063 -8.3,0 -10.93,-7.129 -10.93,-14.063 v -30.293 h -20.98 v 95.645 h 20.98"
         style="fill:#231f20;fill-opacity:1;fill-rule:nonzero;stroke:none"
         id="path82" /><path
         d="m 1206.3,225.02 h 0.23 c 4.85,7.128 10.71,9.55 18.89,9.55 15.92,0 22.25,-10.019 22.25,-24.55 v -36.524 h -20.98 v 28.809 c 0,5.644 0.94,15.547 -9.45,15.547 -8.52,0 -10.94,-6.329 -10.94,-13.711 v -30.645 h -20.98 v 59.102 h 20.98 v -7.578"
         style="fill:#231f20;fill-opacity:1;fill-rule:nonzero;stroke:none"
         id="path84" /><path
         d="m 1279.25,203.008 c 0,-7.5 4.96,-13.262 13.47,-13.262 8.54,0 13.5,5.762 13.5,13.262 0,7.246 -4.96,13.359 -13.5,13.359 -8.51,0 -13.47,-6.113 -13.47,-13.359 z m 49.1,0 c 0,-20.059 -16.6,-31.465 -35.63,-31.465 -18.9,0 -35.6,11.27 -35.6,31.465 0,20.156 16.6,31.562 35.6,31.562 19.03,0 35.63,-11.406 35.63,-31.562"
         style="fill:#231f20;fill-opacity:1;fill-rule:nonzero;stroke:none"
         id="path86" /><path
         d="m 1358.76,173.496 h -20.96 v 95.645 h 20.96 v -95.645"
         style="fill:#231f20;fill-opacity:1;fill-rule:nonzero;stroke:none"
         id="path88" /><path
         d="m 1390.34,203.008 c 0,-7.5 4.96,-13.262 13.5,-13.262 8.51,0 13.47,5.762 13.47,13.262 0,7.246 -4.96,13.359 -13.47,13.359 -8.54,0 -13.5,-6.113 -13.5,-13.359 z m 49.1,0 c 0,-20.059 -16.6,-31.465 -35.6,-31.465 -18.91,0 -35.63,11.27 -35.63,31.465 0,20.156 16.6,31.562 35.63,31.562 19,0 35.6,-11.406 35.6,-31.562"
         style="fill:#231f20;fill-opacity:1;fill-rule:nonzero;stroke:none"
         id="path90" /><path
         d="m 1466.51,203.457 c 0,-7.48 4.96,-13.262 13.5,-13.262 8.52,0 13.48,5.782 13.48,13.262 0,7.266 -4.96,13.359 -13.48,13.359 -8.54,0 -13.5,-6.093 -13.5,-13.359 z m 47.27,-24.199 c 0,-25.117 -12.46,-35.274 -34.24,-35.274 -13.59,0 -31.8,7.032 -33.65,22.598 h 23.51 c 0.59,-2.09 2.07,-3.594 3.91,-4.512 1.86,-0.898 4.04,-1.367 6,-1.367 11.31,0 13.49,7.363 13.49,16.934 v 2.754 c -5.41,-5.391 -10.95,-8.047 -18.79,-8.047 -17.28,0 -29.16,13.125 -29.16,30.195 0,17.266 12.21,32.031 30.32,32.031 6.91,0 13.26,-2.304 17.4,-8.183 h 0.23 v 6.211 h 20.98 v -53.34"
         style="fill:#231f20;fill-opacity:1;fill-rule:nonzero;stroke:none"
         id="path92" /><path
         d="m 1518.25,232.598 h 24.22 l 15.8,-30.293 15.43,30.293 h 23.85 l -47.36,-88.614 h -23.52 l 20.18,37.579 -28.6,51.035"
         style="fill:#231f20;fill-opacity:1;fill-rule:nonzero;stroke:none"
         id="path94" /><path
         d="m 82.5117,65.5664 c 0,-6.4453 -0.2226,-13.8281 3.8008,-19.3555 3.8047,-5.2929 11.1914,-8.3007 17.5275,-8.3007 6.223,0 13.023,2.8906 17.058,7.7343 4.61,5.5078 4.254,13.125 4.254,19.9219 v 51.7576 h 9.688 V 62.9297 c 0,-9.4531 -0.699,-16.9531 -7.61,-24.1016 -5.992,-6.4453 -14.636,-9.9023 -23.39,-9.9023 -8.1798,0 -16.5939,3.1055 -22.4767,8.8672 -7.6094,7.2656 -8.5274,15.2148 -8.5274,25.1367 v 54.3943 h 9.6758 V 65.5664"
         style="fill:#231f20;fill-opacity:1;fill-rule:nonzero;stroke:none"
         id="path96" /><path
         d="m 167.457,35.5078 c 0,-3.5742 -2.887,-6.582 -6.461,-6.582 -3.57,0 -6.457,3.0078 -6.457,6.582 0,3.4375 2.887,6.3281 6.457,6.3281 3.574,0 6.461,-2.8906 6.461,-6.3281"
         style="fill:#231f20;fill-opacity:1;fill-rule:nonzero;stroke:none"
         id="path98" /><path
         d="m 226.93,100.371 c -3.461,5.996 -7.61,9.453 -14.981,9.453 -7.734,0 -14.41,-5.527 -14.41,-13.4959 0,-7.4804 7.715,-10.9375 13.598,-13.5937 l 5.761,-2.5196 c 11.286,-4.9609 20.868,-10.6054 20.868,-24.4335 0,-15.2149 -12.219,-26.8555 -27.328,-26.8555 -13.938,0 -24.305,8.9844 -27.086,22.4609 l 9.457,2.6563 c 1.269,-8.8672 8.07,-16.1328 17.402,-16.1328 9.344,0 17.863,7.1484 17.863,16.9531 0,10.1367 -7.945,13.5937 -16.019,17.2656 l -5.309,2.3242 c -10.137,4.6094 -18.894,9.7852 -18.894,22.2461 0,13.4768 11.41,22.1098 24.312,22.1098 9.688,0 17.871,-4.942 22.481,-13.477 l -7.715,-4.961"
         style="fill:#231f20;fill-opacity:1;fill-rule:nonzero;stroke:none"
         id="path100" /><path
         d="m 267.367,35.5078 c 0,-3.5742 -2.871,-6.582 -6.445,-6.582 -3.567,0 -6.453,3.0078 -6.453,6.582 0,3.4375 2.886,6.3281 6.453,6.3281 3.574,0 6.445,-2.8906 6.445,-6.3281"
         style="fill:#231f20;fill-opacity:1;fill-rule:nonzero;stroke:none"
         id="path102" /><path
         d="m 339.629,39.4141 c 10.605,0 19.48,1.5039 27.434,8.9843 7.14,6.6993 10.832,15.7813 10.832,25.4688 0,9.9023 -3.801,19.4726 -11.297,26.0547 -7.95,7.0311 -16.703,8.4181 -26.969,8.4181 h -7.031 V 39.4141 Z m -16.703,77.9099 h 16.359 c 13.028,0 23.629,-1.738 33.895,-10.488 9.902,-8.5352 14.402,-20.1758 14.402,-33.086 0,-12.6758 -4.609,-23.8477 -14.187,-32.3828 -10.372,-9.2188 -20.739,-10.9375 -34.336,-10.9375 h -16.133 v 86.8943"
         style="fill:#231f20;fill-opacity:1;fill-rule:nonzero;stroke:none"
         id="path104" /><path
         d="m 438.516,63.3789 c -1.27,7.832 -7.836,14.1797 -15.914,14.1797 -7.946,0 -15.317,-6.3477 -16.469,-14.1797 z m -32.848,-7.832 c 0.125,-10.0196 7.266,-18.086 17.746,-18.086 7.836,0 12.914,4.7071 16.484,11.1719 l 7.84,-4.5117 c -5.183,-9.668 -13.937,-15.1953 -25.008,-15.1953 -16.128,0 -26.515,12.3242 -26.515,27.8906 0,16.0156 9.348,29.2774 26.281,29.2774 17.402,0 26.625,-14.4141 25.707,-30.5469 h -42.535"
         style="fill:#231f20;fill-opacity:1;fill-rule:nonzero;stroke:none"
         id="path106" /><path
         d="m 469.176,58.0859 c 0,-10.6054 6.222,-20.625 17.742,-20.625 11.875,0 18.102,9.5508 18.102,20.5079 0,10.8203 -6.797,19.5898 -18.207,19.5898 -10.727,0 -17.637,-9.3359 -17.637,-19.4727 z m 0.453,18.7891 h 0.23 c 4.5,5.9766 11.176,9.2188 18.676,9.2188 15.895,0 25.922,-13.7305 25.922,-28.711 0,-15.4492 -9.793,-28.457 -26.027,-28.457 -7.395,0 -14.192,3.2226 -18.571,9.1015 h -0.23 V 0 h -9.223 v 84.5898 h 9.223 V 76.875"
         style="fill:#231f20;fill-opacity:1;fill-rule:nonzero;stroke:none"
         id="path108" /><path
         d="m 532.219,58.0859 c 0,-10.6054 6.211,-20.625 17.742,-20.625 11.875,0 18.086,9.5508 18.086,20.5079 0,10.8203 -6.797,19.5898 -18.207,19.5898 -10.715,0 -17.621,-9.3359 -17.621,-19.4727 z m 44.597,-27.6562 h -9.218 v 7.4805 h -0.235 c -4.718,-5.9766 -11.07,-8.9844 -18.672,-8.9844 -15.898,0 -25.925,13.4765 -25.925,28.457 0,15.4492 9.793,28.711 26.047,28.711 7.375,0 14.046,-3.4571 18.55,-9.2188 h 0.235 v 7.7148 h 9.218 V 30.4297"
         style="fill:#231f20;fill-opacity:1;fill-rule:nonzero;stroke:none"
         id="path110" /><path
         d="m 602.637,78.7109 h 0.215 c 3.226,4.2579 6.003,7.3829 12.003,7.3829 3.098,0 5.633,-1.0352 8.286,-2.5586 l -4.375,-8.3985 c -1.852,1.2696 -3.106,2.4219 -5.528,2.4219 -10.152,0 -10.601,-13.0078 -10.601,-20.0391 V 30.4297 h -9.223 v 54.1601 h 9.223 v -5.8789"
         style="fill:#231f20;fill-opacity:1;fill-rule:nonzero;stroke:none"
         id="path112" /><path
         d="m 644.457,30.4297 h -9.223 v 45.625 h -5.632 v 8.5351 h 5.632 v 19.4732 h 9.223 V 84.5898 h 9.684 v -8.5351 h -9.684 v -45.625"
         style="fill:#231f20;fill-opacity:1;fill-rule:nonzero;stroke:none"
         id="path114" /><path
         d="m 671.656,78.7109 h 0.231 c 2.886,4.4922 7.5,7.3829 13.023,7.3829 6.336,0 12.11,-3.3594 14.985,-8.9844 3.226,5.9765 9.683,8.9844 16.25,8.9844 13.832,0 17.293,-11.3086 17.293,-22.7149 V 30.4297 h -9.219 v 31.4648 c 0,7.0313 -0.469,15.6641 -9.922,15.6641 -10.602,0 -11.754,-10.2539 -11.754,-18.4375 V 30.4297 h -9.219 v 30.7617 c 0,6.6797 -0.804,16.3672 -9.687,16.3672 -10.821,0 -11.981,-10.957 -11.981,-19.1406 V 30.4297 h -9.222 v 54.1601 h 9.222 v -5.8789"
         style="fill:#231f20;fill-opacity:1;fill-rule:nonzero;stroke:none"
         id="path116" /><path
         d="m 788.406,63.3789 c -1.273,7.832 -7.84,14.1797 -15.91,14.1797 -7.949,0 -15.324,-6.3477 -16.473,-14.1797 z m -32.843,-7.832 c 0.105,-10.0196 7.265,-18.086 17.742,-18.086 7.84,0 12.918,4.7071 16.484,11.1719 l 7.84,-4.5117 c -5.184,-9.668 -13.957,-15.1953 -25.008,-15.1953 -16.144,0 -26.516,12.3242 -26.516,27.8906 0,16.0156 9.344,29.2774 26.282,29.2774 17.402,0 26.621,-14.4141 25.695,-30.5469 h -42.519"
         style="fill:#231f20;fill-opacity:1;fill-rule:nonzero;stroke:none"
         id="path118" /><path
         d="m 819.984,78.0273 h 0.231 c 3.805,5.1758 8.754,8.0665 15.449,8.0665 14.981,0 18.43,-10.8399 18.43,-23.5157 V 30.4297 h -9.211 V 60.957 c 0,8.7696 -0.695,16.6016 -11.41,16.6016 -12.68,0 -13.489,-11.7578 -13.489,-21.4258 V 30.4297 h -9.222 v 54.1601 h 9.222 v -6.5625"
         style="fill:#231f20;fill-opacity:1;fill-rule:nonzero;stroke:none"
         id="path120" /><path
         d="m 881.301,30.4297 h -9.223 v 45.625 h -5.64 v 8.5351 h 5.64 v 19.4732 h 9.223 V 84.5898 h 9.668 v -8.5351 h -9.668 v -45.625"
         style="fill:#231f20;fill-opacity:1;fill-rule:nonzero;stroke:none"
         id="path122" /><path
         d="m 939.148,57.5195 c 0,-11.0742 7.832,-20.0586 19.243,-20.0586 11.414,0 19.254,8.9844 19.254,20.0586 0,10.9375 -7.84,20.0391 -19.254,20.0391 -11.411,0 -19.243,-9.1016 -19.243,-20.0391 z m -9.226,-0.1367 c 0,15.918 12.566,28.711 28.469,28.711 15.918,0 28.472,-12.793 28.472,-28.711 0,-15.8984 -12.683,-28.457 -28.472,-28.457 -15.786,0 -28.469,12.5586 -28.469,28.457"
         style="fill:#231f20;fill-opacity:1;fill-rule:nonzero;stroke:none"
         id="path124" /><path
         d="m 1009.56,30.4297 h -9.22 v 45.625 h -5.059 v 8.5351 h 5.059 v 21.5622 c 0,4.473 0,10.137 2.42,14.043 2.99,4.844 8.42,6.797 13.96,6.797 2.19,0 4.37,-0.449 6.56,-1.152 v -9.317 c -2.08,0.684 -3.92,1.25 -6.22,1.25 -7.5,0 -7.5,-5.293 -7.5,-14.863 V 84.5898 h 13.72 v -8.5351 h -13.72 v -45.625"
         style="fill:#231f20;fill-opacity:1;fill-rule:nonzero;stroke:none"
         id="path126" /><path
         d="m 1132.88,98.3008 c -6.91,7.1482 -16.48,11.5232 -26.52,11.5232 -19.36,0 -35.03,-16.8162 -35.03,-35.9568 0,-19.1406 15.81,-35.957 35.26,-35.957 9.81,0 19.38,4.6289 26.29,11.5234 V 37.4609 c -7.5,-5.4296 -16.72,-8.5351 -25.94,-8.5351 -24.55,0 -45.28,19.9414 -45.28,44.6094 0,24.8828 20.4,45.2738 45.28,45.2738 9.69,0 18.21,-2.754 25.94,-8.516 V 98.3008"
         style="fill:#231f20;fill-opacity:1;fill-rule:nonzero;stroke:none"
         id="path128" /><path
         d="m 1153.62,57.5195 c 0,-11.0742 7.84,-20.0586 19.24,-20.0586 11.43,0 19.26,8.9844 19.26,20.0586 0,10.9375 -7.83,20.0391 -19.26,20.0391 -11.4,0 -19.24,-9.1016 -19.24,-20.0391 z m -9.22,-0.1367 c 0,15.918 12.56,28.711 28.46,28.711 15.9,0 28.48,-12.793 28.48,-28.711 0,-15.8984 -12.68,-28.457 -28.48,-28.457 -15.78,0 -28.46,12.5586 -28.46,28.457"
         style="fill:#231f20;fill-opacity:1;fill-rule:nonzero;stroke:none"
         id="path130" /><path
         d="m 1223.23,78.7109 h 0.24 c 2.89,4.4922 7.5,7.3829 13.02,7.3829 6.33,0 12.09,-3.3594 14.98,-8.9844 3.23,5.9765 9.69,8.9844 16.25,8.9844 13.83,0 17.27,-11.3086 17.27,-22.7149 V 30.4297 h -9.2 v 31.4648 c 0,7.0313 -0.47,15.6641 -9.92,15.6641 -10.61,0 -11.74,-10.2539 -11.74,-18.4375 V 30.4297 h -9.24 v 30.7617 c 0,6.6797 -0.8,16.3672 -9.68,16.3672 -10.83,0 -11.98,-10.957 -11.98,-19.1406 V 30.4297 h -9.22 v 54.1601 h 9.22 v -5.8789"
         style="fill:#231f20;fill-opacity:1;fill-rule:nonzero;stroke:none"
         id="path132" /><path
         d="m 1311.75,78.7109 h 0.23 c 2.87,4.4922 7.48,7.3829 13.01,7.3829 6.35,0 12.11,-3.3594 15,-8.9844 3.2,5.9765 9.67,8.9844 16.23,8.9844 13.83,0 17.31,-11.3086 17.31,-22.7149 V 30.4297 h -9.24 v 31.4648 c 0,7.0313 -0.45,15.6641 -9.91,15.6641 -10.6,0 -11.75,-10.2539 -11.75,-18.4375 V 30.4297 h -9.22 v 30.7617 c 0,6.6797 -0.82,16.3672 -9.67,16.3672 -10.84,0 -11.99,-10.957 -11.99,-19.1406 V 30.4297 h -9.22 v 54.1601 h 9.22 v -5.8789"
         style="fill:#231f20;fill-opacity:1;fill-rule:nonzero;stroke:none"
         id="path134" /><path
         d="m 1428.49,63.3789 c -1.25,7.832 -7.84,14.1797 -15.9,14.1797 -7.97,0 -15.33,-6.3477 -16.49,-14.1797 z m -32.86,-7.832 c 0.12,-10.0196 7.27,-18.086 17.76,-18.086 7.83,0 12.91,4.7071 16.48,11.1719 l 7.84,-4.5117 c -5.18,-9.668 -13.95,-15.1953 -25,-15.1953 -16.14,0 -26.51,12.3242 -26.51,27.8906 0,16.0156 9.34,29.2774 26.27,29.2774 17.4,0 26.62,-14.4141 25.7,-30.5469 h -42.54"
         style="fill:#231f20;fill-opacity:1;fill-rule:nonzero;stroke:none"
         id="path136" /><path
         d="m 1459.62,78.7109 h 0.21 c 3.23,4.2579 6,7.3829 12,7.3829 3.1,0 5.64,-1.0352 8.3,-2.5586 l -4.4,-8.3985 c -1.83,1.2696 -3.1,2.4219 -5.52,2.4219 -10.14,0 -10.59,-13.0078 -10.59,-20.0391 V 30.4297 h -9.24 v 54.1601 h 9.24 v -5.8789"
         style="fill:#231f20;fill-opacity:1;fill-rule:nonzero;stroke:none"
         id="path138" /><path
         d="m 1529.68,68.457 h -0.24 c -4.25,5.4102 -9.57,9.1016 -16.81,9.1016 -11.19,0 -19.14,-9.2188 -19.14,-20.0391 0,-10.7422 7.36,-20.0586 18.67,-20.0586 7.71,0 13.12,3.4571 17.63,9.3164 h 0.24 V 34.4531 c -5.31,-3.5742 -10.72,-5.5273 -17.19,-5.5273 -16.37,0 -28.81,12.207 -28.81,28.5937 0,16.1133 13.03,28.5743 28.93,28.5743 5.88,0 11.87,-1.9532 16.72,-5.4297 V 68.457"
         style="fill:#231f20;fill-opacity:1;fill-rule:nonzero;stroke:none"
         id="path140" /><path
         d="m 1581.77,63.3789 c -1.27,7.832 -7.83,14.1797 -15.92,14.1797 -7.95,0 -15.31,-6.3477 -16.47,-14.1797 z m -32.85,-7.832 c 0.13,-10.0196 7.26,-18.086 17.75,-18.086 7.83,0 12.91,4.7071 16.48,11.1719 l 7.84,-4.5117 c -5.18,-9.668 -13.95,-15.1953 -25,-15.1953 -16.14,0 -26.53,12.3242 -26.53,27.8906 0,16.0156 9.36,29.2774 26.29,29.2774 17.4,0 26.62,-14.4141 25.71,-30.5469 h -42.54"
         style="fill:#231f20;fill-opacity:1;fill-rule:nonzero;stroke:none"
         id="path142" /><path
         d="m 724,456.953 h -50.746 v 195.942 c 0,-0.215 0,36.98 37.117,49.367 33.5,10.742 55.883,-10.899 55.934,-10.836 l 167.3,-180.914 c 8.399,-5.184 11.825,0.215 11.739,5.187 V 702.262 H 996.57 V 507.715 c -0.254,-16.578 -13.941,-37.129 -33.379,-45.141 -19.898,-7.73 -41.753,-7.668 -67.656,14.125 L 739.027,646.777 c -4.101,4.446 -14.843,4.938 -15.027,-3.754 v -186.07 0"
         style="fill:#231f20;fill-opacity:1;fill-rule:nonzero;stroke:none"
         id="path144" /><path
         d="m 1029.44,702.262 h 51.23 V 526.5 c -0.15,-18.723 15.49,-18.723 31.02,-18.785 h 227.44 c 9.49,0.062 20.27,11.238 20.22,22.543 0.05,11.707 -10.92,23.535 -21.16,23.504 h -148.04 c -25.45,-0.934 -78.3,22.57 -78.46,72.371 0.16,60.793 50.08,74.515 72.83,76.129 h 418.71 v -51.696 h -104.8 V 456.953 h -50.74 V 650.566 H 1191.1 c -24.43,2.114 -42.05,-39.988 -1.89,-46.074 h 157.44 c 23.65,0.219 62.81,-20.367 62.95,-71.41 -0.14,-51.723 -30.49,-76.191 -62.95,-76.129 h -232.62 c -38.41,-0.062 -52.16,8.66 -65.8,21.613 -12.58,12.45 -14.7,19.43 -18.79,45.11 v 178.586 0"
         style="fill:#231f20;fill-opacity:1;fill-rule:nonzero;stroke:none"
         id="path146" /></g></g></svg>
