<?xml version="1.0" encoding="UTF-8" standalone="no"?><!DOCTYPE svg PUBLIC "-//W3C//DTD SVG 1.1//EN" "http://www.w3.org/Graphics/SVG/1.1/DTD/svg11.dtd"><svg width="100%" height="100%" viewBox="0 0 2838 605" version="1.1" xmlns="http://www.w3.org/2000/svg" xmlns:xlink="http://www.w3.org/1999/xlink" xml:space="preserve" xmlns:serif="http://www.serif.com/" style="fill-rule:evenodd;clip-rule:evenodd;stroke-linecap:round;stroke-linejoin:round;stroke-miterlimit:1.5;"><rect id="ITL--Two-Color-" serif:id="ITL (Two Color)" x="0.514" y="3.686" width="2836.51" height="598.252" style="fill:none;"/><clipPath id="_clip1"><rect id="ITL--Two-Color-1" serif:id="ITL (Two Color)" x="0.514" y="3.686" width="2836.51" height="598.252"/></clipPath><g clip-path="url(#_clip1)"><path d="M94.76,536.598l-88.101,0l0,-340.177c0,0.373 0,-64.201 64.439,-85.707c58.16,-18.649 97.019,18.922 97.108,18.813l290.451,314.087c14.582,9 20.53,-0.374 20.381,-9.005l-0,-323.895l88.934,0l-0,337.756c-0.441,28.781 -24.204,64.46 -57.95,78.369c-34.545,13.421 -72.488,13.313 -117.458,-24.522l-271.716,-295.274c-7.119,-7.719 -25.769,-8.573 -26.088,6.517l-0,323.038" style="fill:#231f20;fill-rule:nonzero;"/><path d="M625.038,110.714l88.941,0l-0,305.143c-0.261,32.505 26.892,32.505 53.854,32.613l394.861,-0c16.475,-0.108 35.191,-19.511 35.104,-39.138c0.087,-20.324 -18.958,-40.859 -36.736,-40.805l-257.014,-0c-44.184,1.621 -135.938,-39.184 -136.215,-125.644c0.277,-105.544 86.944,-129.366 126.441,-132.169l726.927,0l-0,89.75l-181.945,0l0,336.134l-88.09,0l0,-336.134l-445.469,0c-42.413,-3.67 -73.003,69.424 -3.281,79.99l273.333,0c41.059,-0.38 109.045,35.359 109.289,123.976c-0.244,89.797 -52.934,132.276 -109.289,132.168l-403.854,0c-66.684,0.108 -90.555,-15.035 -114.236,-37.522c-21.84,-21.615 -25.521,-33.733 -32.621,-78.316l-0,-310.046" style="fill:#231f20;fill-rule:nonzero;"/><path d="M94.76,536.598l-88.101,0l0,-340.177c0,0.373 0,-64.201 64.439,-85.707c58.16,-18.649 97.019,18.922 97.108,18.813l290.451,314.087c14.582,9 20.53,-0.374 20.381,-9.005l-0,-323.895l88.934,0l-0,337.756c-0.441,28.781 -24.204,64.46 -57.95,78.369c-34.545,13.421 -72.488,13.313 -117.458,-24.522l-271.716,-295.274c-7.119,-7.719 -25.769,-8.573 -26.088,6.517l-0,323.038" style="fill:#231f20;fill-rule:nonzero;"/><path d="M625.038,110.714l88.941,0l-0,305.143c-0.261,32.505 26.892,32.505 53.854,32.613l394.861,-0c16.475,-0.108 35.191,-19.511 35.104,-39.138c0.087,-20.324 -18.958,-40.859 -36.736,-40.805l-257.014,-0c-44.184,1.621 -135.938,-39.184 -136.215,-125.644c0.277,-105.544 86.944,-129.366 126.441,-132.169l726.927,0l-0,89.75l-181.945,0l0,336.134l-88.09,0l0,-336.134l-445.469,0c-42.413,-3.67 -73.003,69.424 -3.281,79.99l273.333,0c41.059,-0.38 109.045,35.359 109.289,123.976c-0.244,89.797 -52.934,132.276 -109.289,132.168l-403.854,0c-66.684,0.108 -90.555,-15.035 -114.236,-37.522c-21.84,-21.615 -25.521,-33.733 -32.621,-78.316l-0,-310.046" style="fill:#231f20;fill-rule:nonzero;"/><g transform="matrix(4.16667,0,0,4.16667,-115.019,-618.114)"><text x="464.429px" y="201.537px" style="font-family:'HelveticaNeue-Bold', 'Helvetica Neue';font-weight:700;font-size:36px;fill:#18669e;">I<tspan x="473.969px 499.565px 519.833px 546.761px 571.673px 603.245px 623.513px 644.429px 653.969px 680.897px " y="201.537px 201.537px 201.537px 201.537px 201.537px 201.537px 201.537px 201.537px 201.537px 201.537px ">NFORMATION</tspan></text><g transform="matrix(36,0,0,36,708.761,238.581)"></g><text x="464.429px" y="238.581px" style="font-family:'HelveticaNeue-Bold', 'Helvetica Neue';font-weight:700;font-size:36px;fill:#18669e;">T<tspan x="485.345px 507.593px 533.189px 558.785px 584.381px 611.309px 631.577px 658.505px 684.749px " y="238.581px 238.581px 238.581px 238.581px 238.581px 238.581px 238.581px 238.581px 238.581px ">ECHNOLOGY</tspan></text></g><path d="M1699.27,20.44l0,95.834l68.398,45.833l-68.398,45.833l0,379.167" style="fill:none;stroke:#000;stroke-width:20.83px;"/><g transform="matrix(150,0,0,150,2810.76,538.641)"></g><text x="1815.36px" y="538.641px" style="font-family:'HelveticaNeue-Light', 'Helvetica Neue';font-weight:300;font-size:150px;fill:#6d6e71;">L<tspan x="1900.41px 1999.41px 2103.96px 2219.61px 2324.16px 2412.96px 2500.86px 2616.51px 2719.11px " y="538.641px 538.641px 538.641px 538.641px 538.641px 538.641px 538.641px 538.641px 538.641px ">ABORATORY</tspan></text></g></svg>